<?xml version="1.0" encoding="UTF-8"?>
<svg id="Layer_1" data-name="Layer 1" xmlns="http://www.w3.org/2000/svg" viewBox="0 0 1280 440">
  <defs>
    <style>
      .cls-1 {
        fill: none;
      }
    </style>
  </defs>
  <rect class="cls-1" x="15.1" y="103.47" width="1259.8" height="187.07"/>
  <path d="M76.35,286.6v-148.75H15.1v-26.25h148.75v26.25h-61.25v148.75h-26.25Z"/>
  <path d="M171.28,137.85v-26.25h26.25v26.25h-26.25ZM171.28,286.6v-131.25h26.25v131.25h-26.25Z"/>
  <path d="M218.35,286.6v-131.25h26.25v17.5h8.75v-8.75h8.75v-8.75h26.25v8.75h17.5v8.75h8.75v17.5h8.75v96.25h-26.25v-96.25h-8.75v-8.75h-26.25v8.75h-8.75v8.75h-8.75v87.5h-26.25Z"/>
  <path d="M363.32,339.1v-26.25h8.75v-26.25h8.75v-17.5h-8.75v-17.5h-8.75v-17.5h-8.75v-26.25h-8.75v-26.25h-8.75v-26.25h26.25v26.25h8.75v26.25h8.75v26.25h8.75v8.75h8.75v-35h8.75v-26.25h8.75v-26.25h26.25v26.25h-8.75v26.25h-8.75v26.25h-8.75v26.25h-8.75v26.25h-8.75v26.25h-8.75v26.25h-26.25Z"/>
  <path d="M474.02,286.6v-8.96h-8.96v-8.96h-8.96v-17.92h8.96v-8.96h8.96v8.96h8.96v8.96h8.96v8.96h17.92v-8.96h8.96v-17.92h-8.96v-8.96h-8.96v-8.96h-17.92v-8.96h-8.96v-8.96h-8.96v-8.96h-8.96v-26.88h8.96v-8.96h8.96v-8.96h53.76v8.96h8.96v26.88h-17.92v-8.96h-8.96v-8.96h-17.92v8.96h-8.96v8.96h8.96v8.96h8.96v8.96h17.92v8.96h8.96v8.96h8.96v8.96h8.96v35.84h-8.96v8.96h-8.96v8.96h-53.76ZM465.06,179.08v8.96h8.96v-8.96h-8.96ZM536.74,259.72v-17.92h-8.96v17.92h8.96Z"/>
  <path d="M595.54,286.6v-8.96h-17.92v-8.96h-8.96v-17.92h-8.96v-62.72h8.96v-17.92h8.96v-8.96h17.92v-8.96h35.84v8.96h17.92v8.96h8.96v26.88h-17.92v-8.96h-8.96v-8.96h-35.84v8.96h-8.96v62.72h8.96v8.96h35.84v-8.96h8.96v-8.96h17.92v26.88h-8.96v8.96h-17.92v8.96h-35.84ZM568.66,197v44.8h8.96v-44.8h-8.96ZM622.42,161.16h-17.92v8.96h17.92v-8.96ZM622.42,277.64v-8.96h-17.92v8.96h17.92Z"/>
  <path d="M676.45,286.6v-134.4h26.88v17.92h8.96v-8.96h8.96v-8.96h35.84v8.96h8.96v8.96h8.96v17.92h-8.96v8.96h-8.96v-8.96h-8.96v-8.96h-26.88v8.96h-8.96v8.96h-8.96v89.6h-26.88ZM694.37,277.64v-89.6h8.96v-8.96h-8.96v-17.92h-8.96v116.48h8.96ZM748.13,161.16h-17.92v8.96h17.92v-8.96Z"/>
  <path d="M813.37,286.6v-8.96h-17.92v-8.96h-8.96v-17.92h-8.96v-62.72h8.96v-17.92h8.96v-8.96h17.92v-8.96h35.84v8.96h8.96v8.96h8.96v-17.92h26.88v134.4h-26.88v-17.92h-8.96v8.96h-8.96v8.96h-35.84ZM786.49,197v44.8h8.96v-44.8h-8.96ZM849.21,259.72v-8.96h8.96v-8.96h8.96v-44.8h-8.96v-8.96h-8.96v-8.96h-35.84v8.96h-8.96v62.72h8.96v8.96h35.84ZM840.25,170.12v-8.96h-17.92v8.96h17.92ZM840.25,277.64v-8.96h-17.92v8.96h17.92ZM876.09,259.72v17.92h8.96v-116.48h-8.96v17.92h-8.96v8.96h8.96v62.72h-8.96v8.96h8.96Z"/>
  <path d="M913.33,340.36v-188.16h26.88v17.92h8.96v-8.96h8.96v-8.96h35.84v8.96h17.92v8.96h8.96v17.92h8.96v62.72h-8.96v17.92h-8.96v8.96h-17.92v8.96h-35.84v-8.96h-8.96v-8.96h-8.96v71.68h-26.88ZM931.25,331.4v-71.68h8.96v-8.96h-8.96v-62.72h8.96v-8.96h-8.96v-17.92h-8.96v170.24h8.96ZM993.97,259.72v-8.96h8.96v-62.72h-8.96v-8.96h-35.84v8.96h-8.96v8.96h-8.96v44.8h8.96v8.96h8.96v8.96h35.84ZM985.01,170.12v-8.96h-17.92v8.96h17.92ZM967.09,277.64h17.92v-8.96h-17.92v8.96ZM1020.85,241.8v-44.8h-8.96v44.8h8.96Z"/>
  <path d="M1079.09,286.6v-8.96h-17.92v-8.96h-8.96v-17.92h-8.96v-62.72h8.96v-17.92h8.96v-8.96h17.92v-8.96h35.84v8.96h17.92v8.96h8.96v17.92h8.96v35.84h-80.64v26.88h8.96v8.96h35.84v-8.96h8.96v-8.96h26.88v17.92h-8.96v8.96h-8.96v8.96h-17.92v8.96h-35.84ZM1061.17,241.8v-44.8h-8.96v44.8h8.96ZM1123.89,205.96v-17.92h-8.96v-8.96h-35.84v8.96h-8.96v17.92h53.76ZM1105.97,161.16h-17.92v8.96h17.92v-8.96ZM1105.97,277.64v-8.96h-17.92v8.96h17.92ZM1141.81,214.92v-17.92h-8.96v17.92h8.96Z"/>
  <path d="M1167.57,286.6v-134.4h26.88v17.92h8.96v-8.96h8.96v-8.96h35.84v8.96h8.96v8.96h8.96v17.92h-8.96v8.96h-8.96v-8.96h-8.96v-8.96h-26.88v8.96h-8.96v8.96h-8.96v89.6h-26.88ZM1185.49,277.64v-89.6h8.96v-8.96h-8.96v-17.92h-8.96v116.48h8.96ZM1239.25,161.16h-17.92v8.96h17.92v-8.96Z"/>
</svg>